<?xml version="1.0" standalone="no"?>
<!DOCTYPE svg PUBLIC "-//W3C//DTD SVG 20010904//EN"
 "http://www.w3.org/TR/2001/REC-SVG-20010904/DTD/svg10.dtd">
<svg version="1.0" xmlns="http://www.w3.org/2000/svg"
 width="1024.000000pt" height="1024.000000pt" viewBox="0 0 1024.000000 1024.000000"
 preserveAspectRatio="xMidYMid meet">
<metadata>
Created by potrace 1.14, written by Peter Selinger 2001-2017
</metadata>
<g transform="translate(0.000000,1024.000000) scale(0.100000,-0.100000)"
fill="#000000" stroke="none">
<path d="M6940 3024 c-47 -8 -94 -18 -105 -24 -11 -5 -51 -21 -88 -36 -38 -14
-96 -41 -129 -60 -33 -19 -62 -34 -65 -34 -23 0 -153 -114 -223 -196 -58 -67
-109 -182 -123 -276 -14 -100 1 -236 36 -312 23 -50 27 -53 68 -59 24 -3 54
-9 67 -13 l23 -6 -4 163 c-2 90 -2 172 1 184 2 11 20 32 41 47 54 38 267 148
275 141 3 -4 6 -26 6 -50 0 -24 2 -43 3 -43 2 0 24 11 48 24 24 14 79 41 122
62 42 20 77 40 77 43 0 9 90 44 97 38 3 -3 1 -31 -5 -62 -7 -45 -7 -58 4 -62
8 -3 57 16 109 41 53 25 98 46 101 46 3 0 21 7 40 16 44 21 78 8 129 -48 45
-50 115 -166 115 -189 0 -10 5 -21 10 -24 13 -8 13 117 0 170 -20 77 -74 166
-148 241 -80 82 -79 78 -26 151 14 20 14 21 -13 27 -15 4 -39 9 -53 13 -14 3
-77 7 -140 8 -125 2 -119 -2 -105 63 7 31 7 32 -26 31 -19 -1 -72 -8 -119 -15z"/>
<path d="M8330 2978 c-92 -13 -203 -60 -223 -94 -4 -8 -13 -14 -19 -14 -14 0
-58 -51 -58 -67 0 -11 21 -17 50 -15 3 0 88 -4 190 -8 102 -5 250 -12 330 -15
184 -7 301 -14 368 -21 28 -4 52 -3 52 1 0 51 -130 158 -244 200 -102 38 -307
54 -446 33z"/>
<path d="M1420 2523 c-19 -7 -50 -34 -50 -43 0 -4 26 -14 58 -23 67 -19 157
-84 157 -112 0 -11 6 -20 12 -20 24 0 199 -326 187 -347 -5 -7 -2 -8 6 -3 10
6 12 4 7 -9 -4 -9 -3 -15 2 -12 11 7 23 -22 14 -36 -4 -7 -1 -8 7 -3 10 6 12
3 8 -13 -4 -14 -2 -20 5 -15 7 4 8 0 4 -11 -4 -9 -3 -14 2 -11 12 7 24 -31 15
-46 -4 -7 -3 -9 4 -5 12 7 25 -25 26 -64 1 -20 7 -26 28 -28 36 -4 54 30 44
83 -11 55 -248 519 -306 597 -28 39 -67 77 -92 92 -44 26 -111 40 -138 29z"/>
<path d="M2554 2505 c-16 -11 -16 -14 -4 -19 8 -2 69 -21 135 -41 125 -39 187
-66 243 -108 19 -14 153 -137 299 -274 146 -136 277 -252 290 -257 29 -10 73
7 73 28 0 7 -8 23 -17 34 -28 32 -286 264 -408 366 -258 216 -330 260 -441
270 -38 4 -87 8 -110 11 -26 3 -48 -1 -60 -10z"/>
<path d="M7155 2397 c-34 -11 -45 -24 -45 -51 0 -17 6 -18 60 -12 37 4 67 3
80 -4 24 -13 60 2 60 25 0 35 -97 61 -155 42z"/>
<path d="M8020 2372 c-66 -33 -62 -131 6 -148 45 -11 87 8 107 48 17 34 17 39
2 67 -26 52 -59 62 -115 33z"/>
<path d="M9935 2381 c-81 -16 -136 -53 -176 -118 -45 -72 -21 -211 45 -272 44
-40 137 -56 210 -36 74 19 87 25 130 59 94 73 100 193 14 291 -61 69 -131 93
-223 76z"/>
<path d="M6693 2350 c-60 -12 -103 -37 -103 -60 0 -32 29 -40 69 -19 20 10 50
19 67 19 39 0 63 24 47 48 -12 21 -26 22 -80 12z"/>
<path d="M8776 2349 c-37 -10 -55 -36 -55 -79 0 -45 18 -68 58 -76 82 -17 148
81 90 135 -25 23 -55 30 -93 20z"/>
<path d="M666 2259 c-34 -74 -87 -229 -85 -252 0 -7 15 33 33 88 18 55 47 129
64 164 18 35 31 66 28 69 -3 3 -21 -28 -40 -69z"/>
<path d="M1057 2113 c-26 -103 -45 -189 -42 -191 6 -6 3 -15 54 196 24 96 41
176 38 178 -2 3 -25 -80 -50 -183z"/>
<path d="M7204 2211 c-40 -12 -75 -49 -81 -85 -4 -29 -2 -37 13 -43 12 -4 21
-1 28 12 16 27 53 65 65 65 5 0 9 -21 8 -46 0 -35 5 -50 18 -60 26 -20 69 -17
88 4 58 63 -48 180 -139 153z"/>
<path d="M6688 2141 c-13 -11 -33 -36 -43 -56 -20 -36 -20 -37 -1 -51 17 -12
22 -12 38 3 10 9 18 22 18 28 0 11 41 45 55 45 3 0 5 -22 5 -50 0 -42 4 -52
25 -66 43 -28 95 4 95 59 -1 82 -126 139 -192 88z"/>
<path d="M1625 1930 c-14 -15 -16 -31 -12 -66 6 -60 -8 -111 -34 -119 -40 -13
-260 17 -296 41 -14 9 -24 10 -28 4 -10 -15 55 -39 142 -52 46 -6 85 -18 96
-28 25 -24 94 -42 142 -38 34 3 39 7 53 43 20 57 20 143 -2 187 -22 45 -39 53
-61 28z"/>
<path d="M7041 1911 c-15 -28 -14 -31 13 -31 33 0 40 14 17 34 -18 17 -20 17
-30 -3z"/>
<path d="M434 1766 c-9 -23 9 -41 56 -55 49 -14 80 -7 80 19 0 24 -26 39 -84
46 -37 5 -47 3 -52 -10z"/>
<path d="M9677 1759 c-3 -13 -1 -19 6 -16 15 5 22 37 9 37 -5 0 -12 -9 -15
-21z"/>
<path d="M6347 1705 c-84 -89 -74 -216 22 -293 20 -16 50 -33 66 -39 38 -13
134 -11 160 4 18 11 18 13 -16 45 -79 74 -172 218 -189 293 l-7 30 -36 -40z"/>
<path d="M9740 1731 c0 -6 4 -13 10 -16 6 -3 7 1 4 9 -7 18 -14 21 -14 7z"/>
<path d="M7199 1703 c-24 -63 -81 -94 -172 -95 -59 0 -99 17 -125 54 -7 10
-22 18 -33 18 -41 0 -10 -65 47 -99 61 -36 186 -33 262 8 29 15 72 84 72 114
0 38 -37 37 -51 0z"/>
<path d="M973 1664 c-8 -21 15 -38 79 -60 44 -14 52 -14 64 -2 33 33 -23 78
-96 78 -28 0 -43 -5 -47 -16z"/>
<path d="M1870 1629 c0 -5 2 -9 5 -9 2 0 68 -14 147 -31 178 -39 353 -95 458
-148 86 -44 95 -47 85 -31 -9 14 -130 74 -209 104 -132 50 -486 133 -486 115z"/>
<path d="M8130 1532 c0 -27 61 -63 130 -78 64 -13 84 -15 205 -20 115 -5 175
2 355 42 62 14 28 32 -64 33 -39 0 -89 3 -111 5 -22 2 -125 7 -230 11 -104 3
-211 8 -237 10 -27 3 -48 1 -48 -3z"/>
<path d="M194 1516 c-38 -28 -57 -114 -52 -239 7 -151 23 -188 45 -104 26 95
106 177 191 196 24 5 46 12 49 15 12 12 -32 89 -64 113 -41 32 -137 43 -169
19z"/>
<path d="M9110 1242 l0 -248 83 12 c45 7 85 13 90 13 20 2 28 70 28 226 0 229
2 217 -23 168 -18 -35 -27 -43 -49 -43 -22 0 -38 13 -75 60 -26 33 -49 60 -50
60 -2 0 -4 -112 -4 -248z"/>
<path d="M9525 1451 c-3 -5 -1 -12 5 -16 5 -3 10 1 10 9 0 18 -6 21 -15 7z"/>
<path d="M9630 1434 c0 -8 5 -12 10 -9 6 3 10 10 10 16 0 5 -4 9 -10 9 -5 0
-10 -7 -10 -16z"/>
<path d="M4235 1354 c-154 -27 -446 -44 -743 -45 -175 0 -289 -4 -277 -9 28
-12 502 -12 670 0 251 18 445 45 445 61 0 5 -3 8 -7 8 -5 -1 -44 -8 -88 -15z"/>
<path d="M1783 1229 c-6 -8 -19 -36 -29 -64 -16 -44 -19 -84 -20 -320 -1 -148
-3 -279 -5 -289 -2 -10 1 -21 7 -23 8 -3 14 26 19 84 14 165 59 293 132 374
53 59 101 79 215 92 l99 10 -28 30 c-39 40 -74 57 -178 83 -124 32 -198 40
-212 23z"/>
<path d="M7785 1220 c-11 -13 -37 -33 -57 -46 -57 -37 -48 -50 39 -58 39 -3
41 -1 45 26 3 16 2 45 -1 65 l-6 35 -20 -22z"/>
<path d="M7974 1145 c-3 -11 -4 -46 -2 -76 l3 -54 64 -2 c83 -3 92 5 90 76 -3
76 -10 82 -86 80 -56 -2 -64 -5 -69 -24z"/>
<path d="M8770 1126 c-5 -14 -5 -37 -1 -53 4 -15 6 -34 3 -42 -3 -10 2 -13 22
-9 14 3 26 2 26 -3 0 -9 30 -10 73 -2 26 4 27 6 27 70 l0 64 -52 -2 c-43 -2
-54 -7 -60 -23 -6 -20 -6 -20 -7 2 -1 29 -19 28 -31 -2z m105 -60 c17 -17 7
-30 -12 -15 -13 12 -18 29 -7 29 3 0 12 -6 19 -14z"/>
<path d="M550 997 c0 -22 36 -103 62 -139 27 -39 86 -65 168 -74 36 -3 127
-24 202 -46 76 -21 204 -54 286 -73 82 -18 204 -54 272 -80 68 -25 133 -45
144 -43 17 2 22 13 28 60 4 31 4 76 0 99 l-7 41 -125 44 c-145 52 -573 163
-740 194 -63 11 -154 23 -202 27 -76 5 -88 4 -88 -10z m175 -117 c25 -11 -1
-11 -35 0 -20 6 -21 8 -5 8 11 0 29 -3 40 -8z m230 -59 c105 -27 184 -50 177
-50 -15 -1 -375 88 -381 95 -9 8 17 3 204 -45z m255 -61 c20 -6 21 -8 5 -8
-11 0 -31 4 -45 8 -20 6 -21 8 -5 8 11 0 31 -4 45 -8z m57 -16 c-3 -3 -12 -4
-19 -1 -8 3 -5 6 6 6 11 1 17 -2 13 -5z m73 -14 c20 -6 21 -8 5 -8 -11 0 -31
4 -45 8 -20 6 -21 8 -5 8 11 0 31 -4 45 -8z m63 -17 c-7 -2 -19 -2 -25 0 -7 3
-2 5 12 5 14 0 19 -2 13 -5z m50 -10 c-7 -2 -19 -2 -25 0 -7 3 -2 5 12 5 14 0
19 -2 13 -5z m77 -13 c20 -6 21 -8 5 -8 -11 0 -31 4 -45 8 -20 6 -21 8 -5 8
11 0 31 -4 45 -8z"/>
<path d="M4335 834 c-185 -32 -391 -46 -755 -52 -428 -8 -410 -5 -524 -102
-108 -93 -142 -102 -456 -116 -85 -4 -164 -11 -175 -15 -22 -10 205 -3 378 11
126 11 168 27 252 97 76 62 104 81 146 95 21 7 196 14 454 19 404 7 459 11
715 50 99 14 132 9 171 -31 36 -35 38 -57 5 -35 -25 17 -161 14 -666 -15 -91
-5 -226 -12 -300 -15 -244 -11 -383 -45 -505 -125 -112 -73 -104 -72 -518 -96
-60 -3 -105 -9 -100 -14 4 -4 112 -2 238 6 254 14 282 20 381 84 136 89 244
114 555 130 118 6 288 15 379 20 91 5 244 12 340 16 193 7 183 9 239 -61 12
-16 24 -25 28 -22 3 4 -1 15 -10 25 -10 10 -17 26 -17 36 0 43 -30 87 -72 106
-50 23 -73 23 -183 4z"/>
<path d="M3915 600 c-399 -16 -641 -32 -713 -46 -46 -9 -162 -140 -141 -158 2
-2 81 0 174 5 94 5 316 13 495 19 415 14 583 26 695 52 123 27 150 62 90 118
-33 31 -73 32 -600 10z m393 -36 c-3 -14 -5 -12 -10 9 -3 19 -2 25 4 19 6 -6
8 -18 6 -28z m-291 -26 c-2 -13 -4 -5 -4 17 -1 22 1 32 4 23 2 -10 2 -28 0
-40z m-310 10 c-3 -7 -5 -2 -5 12 0 14 2 19 5 13 2 -7 2 -19 0 -25z m-287 -63
c10 -12 38 -15 131 -15 106 0 121 2 139 20 11 11 20 16 20 11 0 -6 -10 -17
-22 -25 -17 -12 -50 -16 -139 -16 -115 0 -118 1 -138 26 -12 15 -21 38 -20 53
1 24 2 23 9 -6 4 -18 13 -40 20 -48z m692 18 c7 -9 7 -13 0 -13 -12 0 -22 25
-21 48 1 13 3 12 6 -3 3 -11 10 -26 15 -32z m-325 5 c-3 -8 -6 -5 -6 6 -1 11
2 17 5 13 3 -3 4 -12 1 -19z m518 3 c-3 -6 -11 -11 -16 -11 -5 0 -4 6 3 14 14
16 24 13 13 -3z m-47 -18 c-10 -2 -26 -2 -35 0 -10 3 -2 5 17 5 19 0 27 -2 18
-5z m-427 -21 c-13 -2 -27 0 -32 5 -6 6 3 7 23 4 28 -4 29 -6 9 -9z m147 1
c-10 -2 -26 -2 -35 0 -10 3 -2 5 17 5 19 0 27 -2 18 -5z"/>
<path d="M7825 200 c-7 -14 -4 -147 4 -160 9 -13 90 -15 624 -15 506 0 617 2
630 14 13 10 17 31 17 86 l0 73 -32 5 c-50 7 -473 2 -486 -7 -7 -4 -17 -4 -23
0 -13 8 -729 12 -734 4z"/>
</g>
</svg>
